# xmcd
#
# Track frame offsets: 
#        150
#        16467
#        38577
#        56825
#        78192
#        99337
#        116770
#        137037
#        156000
#        173502
#
# Disc length: 2509 seconds
#
# Revision: 3
# Processed by: cddbd v1.5.2PL0 Copyright (c) Steve Scherf et al.
# Submitted via: ExactAudioCopy v1.0b3
#
DISCID=7209cb0a
DTITLE=Staple Singers - Be Altitude: Respect Yourself
DYEAR=1990
DGENRE=Soul
TTITLE0=The This World
TTITLE1=Respect Yourself
TTITLE2=Name the Missing Word
TTITLE3=I'll Take You There
TTITLE4=This Old Town
TTITLE5=We the People
TTITLE6=Are You Sure
TTITLE7=Who Do You Think You Are (Jesus Christ Superstar)?
TTITLE8=I'm Just Another Soldier
TTITLE9=Who
EXTD=
EXTT0=
EXTT1=
EXTT2=
EXTT3=
EXTT4=
EXTT5=
EXTT6=
EXTT7=
EXTT8=
EXTT9=
PLAYORDER=
